<svg xmlns="http://www.w3.org/2000/svg"  viewBox="0 0 24 24" width="48px" height="48px"><path d="M 12 2.75 C 11.4195 2.75 10.838609 2.9342812 10.349609 3.3007812 L 4.3496094 7.8007812 C 3.6576094 8.3197812 3.25 9.134 3.25 10 L 3.25 19 C 3.25 20.519 4.481 21.75 6 21.75 L 18 21.75 C 19.519 21.75 20.75 20.519 20.75 19 L 20.75 10 C 20.75 9.134 20.342391 8.3197812 19.650391 7.8007812 L 13.650391 3.3007812 C 13.161391 2.9342812 12.5805 2.75 12 2.75 z M 12 4.25 C 12.264 4.25 12.528 4.3335 12.75 4.5 L 18.75 9 C 19.065 9.236 19.25 9.607 19.25 10 L 19.25 19 C 19.25 19.69 18.69 20.25 18 20.25 L 6 20.25 C 5.31 20.25 4.75 19.69 4.75 19 L 4.75 10 C 4.75 9.607 4.935 9.236 5.25 9 L 11.25 4.5 C 11.472 4.3335 11.736 4.25 12 4.25 z M 10 17.25 C 9.586 17.25 9.25 17.586 9.25 18 C 9.25 18.414 9.586 18.75 10 18.75 L 14 18.75 C 14.414 18.75 14.75 18.414 14.75 18 C 14.75 17.586 14.414 17.25 14 17.25 L 10 17.25 z"/></svg>