<svg xmlns="http://www.w3.org/2000/svg" viewBox="0,0,256,256" width="64px" height="64px">
  <g fill="none" stroke="#000000" stroke-width="8" stroke-linecap="round" stroke-linejoin="round">
    <path transform="scale(2,2)" 
      d="M118.7,10.3c3.4,3.4 5.3,7.9 5.3,12.7c0,4.8 -1.9,9.3 -5.3,12.7
         c-2.7,2.7 -6,4.4 -9.7,5v55.3c0,6.4 -6.1,12 -13,12h-80
         c-7.2,0 -13,-5.8 -13,-13v-62c0,-7.2 5.8,-13 13,-13h72.3
         c0.6,-3.6 2.3,-7 5,-9.7c3.4,-3.4 7.9,-5.3 12.7,-5.3
         c4.8,0 9.3,1.9 12.7,5.3z"/>
    <path transform="scale(2,2)"
      d="M106,5c-4.8,0 -9.3,1.9 -12.7,5.3c-2.7,2.7 -4.4,6.1 -5,9.7h-72.3
         c-7.2,0 -13,5.8 -13,13v62c0,7.2 5.8,13 13,13h80c6.9,0 13,-5.6 13,-12v-55.3
         c3.7,-0.6 7,-2.3 9.7,-5c3.4,-3.4 5.3,-7.9 5.3,-12.7c0,-4.8 -1.9,-9.3 -5.3,-12.7
         c-3.4,-3.4 -7.9,-5.3 -12.7,-5.3zM92.3,52.7c-6.2,6.6 -22.3,22.3 -36.3,22.3
         c-17.4,0 -38,-24.2 -38.9,-25.2c-1.1,-1.3 -0.9,-3.2 0.4,-4.2c1.3,-1.1 3.2,-0.9 4.2,0.4
         c0.1,0.1 5.1,6 11.9,11.8c8.8,7.3 16.5,11.2 22.4,11.2c5.9,0 13.6,-3.9 22.4,-11.3
         c4,-3.4 7.4,-6.8 9.5,-9.1c0.9,-1 2.4,-1.2 3.6,-0.5c1.6,1 2,3.2 0.7,4.6zM114.5,31.5
         c-2.3,2.3 -5.3,3.5 -8.5,3.5c-3.2,0 -6.2,-1.2 -8.5,-3.5c-2.3,-2.3 -3.5,-5.3 -3.5,-8.5
         c0,-3.2 1.2,-6.2 3.5,-8.5c2.3,-2.3 5.3,-3.5 8.5,-3.5c3.2,0 6.2,1.2 8.5,3.5
         c2.3,2.3 3.5,5.3 3.5,8.5c0,3.2 -1.2,6.2 -3.5,8.5z"/>
  </g>
</svg>
