<svg xmlns="http://www.w3.org/2000/svg"  viewBox="0 0 24 24" width="48px" height="48px"><path d="M 0.75 3 A 0.750075 0.750075 0 1 0 0.75 4.5 L 1.2949219 4.5 C 1.6509105 4.5 1.9508479 4.7408002 2.0273438 5.0898438 L 4.3867188 15.839844 C 4.6623127 17.097155 5.7850228 18 7.0722656 18 L 19.25 18 A 0.750075 0.750075 0 1 0 19.25 16.5 L 7.0722656 16.5 C 6.4815084 16.5 5.9779686 16.094266 5.8515625 15.517578 L 5.7382812 15 L 18.626953 15 C 19.923376 15 21.051167 14.083857 21.318359 12.816406 L 22.984375 4.9042969 A 0.750075 0.750075 0 0 0 22.25 4 L 3.1582031 4 C 2.7490024 3.3923458 2.0591031 3 1.2949219 3 L 0.75 3 z M 3.6523438 5.5 L 21.326172 5.5 L 19.849609 12.507812 C 19.726802 13.090362 19.22253 13.5 18.626953 13.5 L 5.4082031 13.5 L 3.6523438 5.5 z M 8.5 19 A 1.5 1.5 0 0 0 8.5 22 A 1.5 1.5 0 0 0 8.5 19 z M 17.5 19 A 1.5 1.5 0 0 0 17.5 22 A 1.5 1.5 0 0 0 17.5 19 z"/></svg>