<svg xmlns="http://www.w3.org/2000/svg"  viewBox="0 0 128 128" width="64px" height="64px"><path d="M 32 6 C 24.8 6 19 11.8 19 19 L 19 109 C 19 116.2 24.8 122 32 122 L 96 122 C 103.2 122 109 116.2 109 109 L 109 29 C 109 22.9 106.60078 17.099219 102.30078 12.699219 C 98.000781 8.2992187 92.1 6 86 6 L 32 6 z M 32 12 L 83 12 L 83 19 C 83 26.2 88.8 32 96 32 L 103 32 L 103 109 C 103 112.9 99.9 116 96 116 L 32 116 C 28.1 116 25 112.9 25 109 L 25 19 C 25 15.1 28.1 12 32 12 z M 89 12.300781 C 92.4 12.900781 95.5 14.5 98 17 C 100.5 19.5 102.09922 22.6 102.69922 26 L 96 26 C 92.1 26 89 22.9 89 19 L 89 12.300781 z M 42 56 C 40.3 56 39 57.3 39 59 C 39 60.7 40.3 62 42 62 L 46 62 C 47.7 62 49 60.7 49 59 C 49 57.3 47.7 56 46 56 L 42 56 z M 61.800781 56 C 60.100781 56 58.800781 57.3 58.800781 59 C 58.800781 60.7 60.100781 62 61.800781 62 L 85.800781 62 C 87.500781 62 88.800781 60.7 88.800781 59 C 88.800781 57.3 87.500781 56 85.800781 56 L 61.800781 56 z M 42 71 C 40.3 71 39 72.3 39 74 C 39 75.7 40.3 77 42 77 L 46 77 C 47.7 77 49 75.7 49 74 C 49 72.3 47.7 71 46 71 L 42 71 z M 61.800781 71 C 60.100781 71 58.800781 72.3 58.800781 74 C 58.800781 75.7 60.100781 77 61.800781 77 L 85.800781 77 C 87.500781 77 88.800781 75.7 88.800781 74 C 88.800781 72.3 87.500781 71 85.800781 71 L 61.800781 71 z M 42 86 C 40.3 86 39 87.3 39 89 C 39 90.7 40.3 92 42 92 L 46 92 C 47.7 92 49 90.7 49 89 C 49 87.3 47.7 86 46 86 L 42 86 z M 61.800781 86 C 60.100781 86 58.800781 87.3 58.800781 89 C 58.800781 90.7 60.100781 92 61.800781 92 L 85.800781 92 C 87.500781 92 88.800781 90.7 88.800781 89 C 88.800781 87.3 87.500781 86 85.800781 86 L 61.800781 86 z"/></svg>